<svg width="76" height="32" viewBox="0 0 76 32" fill="none" xmlns="http://www.w3.org/2000/svg">
<path d="M9.37037 0C3.99274 0 1.36573 3.11565 1.36573 6.75571C1.36573 11.167 4.76539 12.3392 8.90678 13.3572C12.4301 14.1901 14.4389 14.807 14.4389 17.1206C14.4389 19.5268 12.4919 20.5139 9.83396 20.5139C6.9288 20.5139 4.73448 18.9407 4.57995 16.4728L0.840332 16.6888C0.994862 21.1926 4.76539 23.6912 9.83396 23.6912C14.408 23.6912 18.1786 21.6244 18.1786 16.8738C18.1786 12.8019 15.1189 11.4138 10.2666 10.2415C6.9288 9.47033 5.13626 8.94591 5.13626 6.63231C5.13626 4.65804 6.61974 3.17734 9.43218 3.17734C12.0283 3.17734 13.7281 4.59635 13.8517 6.90995L17.5913 6.69401C17.4368 2.46784 14.099 0 9.37037 0Z" fill="black"/>
<path d="M28.202 20.5139C26.7803 20.5139 25.575 19.8661 25.575 17.7993L25.6059 10.55H29.6546V7.55775H25.6368L25.6677 2.19021H22.1753L22.1444 7.55775H19.2084V10.55H22.1444L22.1135 18.5088C22.0826 22.0872 24.246 23.6295 27.3675 23.6295C28.4801 23.6295 29.0983 23.537 29.6855 23.4445V20.3597C29.3146 20.4214 28.851 20.5139 28.202 20.5139Z" fill="black"/>
<path d="M39.5157 7.28012C34.7871 7.28012 31.2329 10.4575 31.2329 15.4857C31.2329 20.4831 34.7871 23.6912 39.5157 23.6912C44.2134 23.6912 47.7676 20.4831 47.7676 15.4857C47.7676 10.4575 44.2134 7.28012 39.5157 7.28012ZM39.5157 10.2415C42.2354 10.2415 44.2752 12.1849 44.2752 15.4857C44.2752 18.7556 42.2354 20.699 39.5157 20.699C36.7651 20.699 34.7562 18.7556 34.7562 15.4857C34.7562 12.1849 36.7651 10.2415 39.5157 10.2415Z" fill="black"/>
<path d="M58.0603 7.37267C55.526 7.37267 54.4046 8.54489 53.8174 9.77881V7.55775H50.4486V23.3828H53.9101V14.7762C53.9101 12.4626 56.4181 10.7351 59.1378 10.7351L58.0603 7.37267Z" fill="black"/>
<path d="M75.9996 7.55775H72.1363L67.8713 18.3854L63.6063 7.55775H59.743L66.0169 22.2722L62.1228 31.249H65.9242L75.9996 7.55775Z" fill="black"/>
</svg>
