<svg width="81" height="24" viewBox="0 0 81 24" fill="none" xmlns="http://www.w3.org/2000/svg">
<path d="M10.2203 0.364846H0.955261V23.6882H10.1583C16.6345 23.6882 21.5304 19.3852 21.5304 12.0265C21.5304 4.66781 16.6965 0.364846 10.2203 0.364846ZM10.2203 3.5453C14.7443 3.5453 17.843 6.44512 17.843 12.0265C17.843 17.6079 14.6824 20.5077 10.1893 20.5077H4.61169V3.5453H10.2203Z" fill="white"/>
<path d="M31.6361 7.41173C26.8951 7.41173 23.3316 10.6234 23.3316 15.7058C23.3316 20.7572 26.8951 24 31.6361 24C36.3461 24 39.9095 20.7572 39.9095 15.7058C39.9095 10.6234 36.3461 7.41173 31.6361 7.41173ZM31.6361 10.4051C34.3629 10.4051 36.408 12.3695 36.408 15.7058C36.408 19.011 34.3629 20.9754 31.6361 20.9754C28.8783 20.9754 26.8641 19.011 26.8641 15.7058C26.8641 12.3695 28.8783 10.4051 31.6361 10.4051Z" fill="white"/>
<path d="M45.9773 0.134766H42.5068V23.6882H45.9773V0.134766Z" fill="white"/>
<path d="M52.8038 0.134766H49.3333V23.6882H52.8038V0.134766Z" fill="white"/>
<path d="M62.4868 7.41173C58.5205 7.41173 56.1655 10.2492 56.1655 13.0555L59.667 13.1802C59.667 11.7459 60.5346 10.4675 62.5178 10.4675C64.4699 10.4675 65.3376 11.7459 65.3376 13.8038V14.2715L61.5572 14.4898C58.3036 14.6769 55.7317 15.8929 55.7317 19.3228C55.7317 22.3162 57.8698 24 61.0304 24C62.7967 24 64.222 23.314 65.3376 22.2538V23.6882H68.8391V13.7415C68.8391 9.65675 66.577 7.41173 62.4868 7.41173ZM65.3686 16.9843V17.5455C65.3686 19.9776 63.8192 21.069 61.6192 21.069C60.2248 21.069 59.2332 20.6012 59.2332 19.2605C59.2332 17.8262 60.4107 17.2961 62.053 17.2025L65.3686 16.9843Z" fill="white"/>
<path d="M80.2363 7.50527C77.6954 7.50527 76.301 8.69014 75.7122 9.93738V7.69236H72.3347V23.6882H75.8052V14.9887C75.8052 12.6501 77.5095 10.904 80.2363 10.904V7.50527Z" fill="white"/>
</svg>
