<svg width="108" height="24" viewBox="0 0 108 24" fill="none" xmlns="http://www.w3.org/2000/svg">
<path d="M74.2644 10.2145C74.5185 10.2147 74.7701 10.2656 75.0044 10.3643C75.2393 10.4633 75.452 10.6084 75.63 10.791C75.9947 11.1609 76.199 11.6596 76.1986 12.1791V23.5521H71.4048V21.0999C70.241 22.8245 67.5146 23.8372 65.3616 23.7952C63.8414 23.813 62.3345 23.5108 60.9388 22.9083C59.5431 22.3057 58.2897 21.4162 57.2602 20.2976C55.1243 18.0226 53.9353 15.0192 53.9353 11.8987C53.9353 8.77811 55.1243 5.77478 57.2602 3.4998C58.288 2.38182 59.5394 1.49252 60.9333 0.889685C62.3271 0.286847 63.8321 -0.0160543 65.3506 0.000655569C67.592 -0.0240015 69.781 0.677806 71.5902 2.00106C72.0262 2.31938 72.4396 2.66764 72.8272 3.04332C73.4243 3.62359 73.959 4.26481 74.4226 4.95648C75.1013 5.98665 75.5869 7.13168 75.8559 8.33566H70.911L70.671 7.90879C70.208 7.08172 69.5667 6.36807 68.7937 5.81958C67.7898 5.11828 66.5906 4.75088 65.3662 4.76952C64.476 4.74804 63.5917 4.91916 62.7738 5.27118C61.9536 5.62693 61.2186 6.15324 60.6176 6.81511C59.3864 8.23233 58.7072 10.0457 58.7043 11.923C58.7015 13.8003 59.3752 15.6158 60.602 17.0368C61.2026 17.6994 61.9385 18.2253 62.7598 18.5791C63.5775 18.9318 64.4619 19.1035 65.3522 19.0824C66.8236 19.0869 68.2449 18.5483 69.3437 17.5696C70.3127 16.6972 70.9546 16.0117 71.2303 14.6095L64.5218 14.6391L64.472 10.2145H74.2644Z" fill="#0074F0"/>
<path d="M22.2976 8.86453C22.4788 9.6034 22.5929 10.3571 22.6384 11.1165C22.7953 13.528 22.2418 15.9326 21.0463 18.0328C19.2161 21.1859 15.8404 23.4192 12.2127 23.7538C11.2898 23.8367 10.3601 23.7985 9.4471 23.6402C7.99544 23.3909 6.60782 22.8555 5.36488 22.0652C4.74829 21.6722 4.17451 21.2158 3.65293 20.7034C3.47395 20.5276 3.29498 20.3501 3.12067 20.1696C2.88833 19.9321 2.66958 19.6816 2.46546 19.4195C2.36586 19.2872 2.26936 19.1533 2.17599 19.0164C2.07948 18.8895 1.99062 18.757 1.90986 18.6195L14.7215 5.63984L14.5565 5.53712C14.5005 5.50288 14.4444 5.47176 14.3868 5.44063C12.5909 4.47727 10.2906 4.49751 8.48841 5.4313C7.60456 5.90328 6.83347 6.56113 6.22817 7.3596C5.62287 8.15807 5.19774 9.0782 4.98202 10.0567C4.73982 11.141 4.70288 12.2612 4.87309 13.3592C4.87665 13.377 4.87989 13.3948 4.8831 13.4125C4.8869 13.4334 4.89066 13.4541 4.89487 13.4743L1.21262 17.2282C1.18929 17.18 1.16592 17.1317 1.14415 17.0834C0.444645 15.5678 0.0575479 13.9268 0.00594244 12.2583C-0.045663 10.5898 0.239281 8.92801 0.843778 7.37202C0.946495 7.11367 1.06011 6.85844 1.17994 6.60631C2.43278 4.01505 4.68788 1.75683 7.39432 0.732775C9.67664 -0.142562 12.1848 -0.236404 14.5261 0.465944C16.8675 1.16829 18.9099 2.62718 20.3335 4.61423V4.62357C20.359 4.65893 20.3845 4.69392 20.4099 4.72887C20.4887 4.837 20.5672 4.94484 20.6448 5.06245L20.7444 5.21808L7.99972 18.2071C9.46578 19.1269 11.4081 19.337 13.0578 18.8607C13.2851 18.795 13.5085 18.7166 13.727 18.6257L13.8561 18.5713C16.0583 17.6079 17.5353 15.4726 17.8746 13.1148C17.9543 12.5629 17.9721 12.0039 17.9275 11.448C17.915 11.2955 17.8107 10.4022 17.8107 10.4022L21.5226 6.61877C21.6294 6.84703 21.7306 7.07788 21.826 7.31132C21.8208 7.31652 21.9565 7.7138 22.0223 7.90681C22.0354 7.94507 22.0458 7.97548 22.0517 7.99299C22.144 8.28039 22.226 8.5709 22.2976 8.86453Z" fill="#0074F0"/>
<path fill-rule="evenodd" clip-rule="evenodd" d="M43.4755 8.06229C43.4955 9.51308 43.0884 10.9377 42.3049 12.1589C41.5186 13.3857 40.3915 14.3564 39.0617 14.9519L44.4133 23.5937H38.9538L34.1273 15.6975H30.3871V23.5937H25.4715V1.28986C25.4713 1.14762 25.4991 1.00673 25.5533 0.87524C25.6076 0.743747 25.6872 0.624228 25.7876 0.523503C25.8881 0.422778 26.0074 0.342822 26.1387 0.288199C26.27 0.233576 26.4108 0.205356 26.5531 0.205151H35.5621C36.6013 0.179057 37.635 0.364096 38.6006 0.74907C40.0583 1.33084 41.3049 2.34159 42.1754 3.64753C43.046 4.95346 43.4993 6.49299 43.4755 8.06229ZM37.7519 10.2974C38.0663 9.99726 38.3144 9.63469 38.4802 9.23297C38.6431 8.83196 38.7193 8.40104 38.7038 7.96851C38.717 7.5502 38.6475 7.1334 38.4992 6.74205C38.3509 6.3507 38.1266 5.99252 37.8394 5.68811C37.548 5.38721 37.1955 5.15228 36.8057 4.99913C36.4158 4.84599 35.9976 4.7782 35.5793 4.80034H30.3965V11.2008H35.3605C35.801 11.2175 36.2404 11.1463 36.6531 10.9913C37.0658 10.8349 37.4439 10.5991 37.766 10.2974H37.7519Z" fill="#0074F0"/>
<path d="M46.2846 0.202729H51.1284V23.5937H46.2846V0.202729Z" fill="#0074F0"/>
<path d="M79.3175 0.202729H84.1613V23.5937H79.3175V0.202729Z" fill="#0074F0"/>
<path d="M102.886 0.207419H103.186L103.199 0.208981H107.755V20.9372C107.758 21.6339 107.494 22.3053 107.016 22.8124C106.787 23.0568 106.51 23.2521 106.203 23.3864C105.896 23.5207 105.565 23.5912 105.23 23.5937H102.798C102.319 23.5916 101.852 23.4487 101.453 23.1827C101.044 22.9132 100.719 22.5342 100.515 22.0889L92.1367 6.61888V23.5906H87.28V2.8592C87.2768 2.16248 87.5414 1.49115 88.0192 0.984045C88.4665 0.506861 89.0844 0.22599 89.738 0.202732H92.3461C92.8242 0.202054 93.2917 0.342873 93.6899 0.607452C94.0966 0.876914 94.4184 1.25621 94.6181 1.70129L102.886 16.8588V0.207419Z" fill="#0074F0"/>
</svg>
